<svg version="1.1" xmlns="http://www.w3.org/2000/svg" viewBox="0 0 458.1953125 31.1015625" width="458.1953125" height="31.1015625">
  <!-- svg-source:excalidraw -->
  
  <defs>
    <style class="style-fonts">
      @font-face {
        font-family: "Virgil";
        src: url("https://excalidraw.com/Virgil.woff2");
      }
      @font-face {
        font-family: "Cascadia";
        src: url("https://excalidraw.com/Cascadia.woff2");
      }
    </style>
  </defs>
  <g transform="translate(10 11.2578125) rotate(0 219.09765625 4.29296875)" stroke="none"><path fill="#000000" d="M 0.16,-2.56 Q 0.16,-2.56 1.64,-2.45 3.12,-2.34 4.33,-2.30 5.53,-2.26 7.53,-2.30 9.53,-2.34 11.61,-2.45 13.68,-2.56 14.82,-2.66 15.95,-2.77 17.09,-2.88 18.23,-3.00 19.30,-3.10 20.36,-3.21 21.48,-3.27 22.60,-3.34 23.89,-3.36 25.18,-3.38 26.57,-3.37 27.96,-3.37 29.38,-3.37 30.81,-3.37 32.29,-3.37 33.78,-3.36 35.51,-3.32 37.24,-3.29 39.08,-3.25 40.93,-3.20 42.69,-3.18 44.46,-3.16 46.15,-3.14 47.84,-3.13 49.39,-3.14 50.93,-3.15 52.58,-3.15 54.22,-3.15 56.07,-3.13 57.92,-3.11 59.96,-3.06 62.00,-3.00 64.23,-2.93 66.46,-2.86 68.63,-2.80 70.79,-2.74 72.76,-2.74 74.73,-2.73 76.41,-2.79 78.10,-2.84 79.64,-2.92 81.19,-3.00 82.74,-3.08 84.30,-3.15 86.13,-3.13 87.95,-3.12 90.32,-2.98 92.68,-2.84 95.29,-2.72 97.91,-2.60 100.37,-2.53 102.84,-2.46 105.09,-2.42 107.35,-2.37 109.52,-2.32 111.69,-2.27 113.76,-2.21 115.83,-2.16 117.92,-2.08 120.02,-2.00 122.12,-1.88 124.23,-1.77 126.17,-1.71 128.10,-1.64 130.05,-1.59 132.00,-1.53 133.97,-1.47 135.94,-1.40 138.05,-1.31 140.16,-1.21 142.72,-1.10 145.28,-1.00 148.07,-0.86 150.86,-0.73 153.38,-0.61 155.90,-0.49 158.08,-0.39 160.25,-0.29 162.43,-0.17 164.61,-0.05 167.13,0.07 169.64,0.20 172.68,0.35 175.72,0.50 178.91,0.64 182.10,0.78 185.17,0.89 188.24,1.01 191.36,1.11 194.47,1.22 197.44,1.32 200.41,1.41 203.86,1.55 207.31,1.68 209.18,1.70 211.05,1.72 213.29,1.81 215.54,1.90 218.33,2.02 221.13,2.13 223.63,2.24 226.12,2.36 228.19,2.44 230.27,2.53 232.01,2.54 233.74,2.55 235.53,2.57 237.32,2.59 239.50,2.69 241.67,2.79 244.06,2.90 246.44,3.02 248.85,3.18 251.25,3.33 253.44,3.47 255.63,3.61 257.55,3.68 259.48,3.74 261.37,3.82 263.27,3.90 265.60,4.06 267.94,4.21 270.70,4.33 273.47,4.45 276.16,4.53 278.86,4.61 281.30,4.71 283.74,4.81 285.80,4.90 287.85,5.00 289.53,5.04 291.21,5.09 292.61,5.11 294.01,5.14 295.48,5.16 296.96,5.18 298.78,5.25 300.60,5.32 302.66,5.41 304.73,5.50 306.82,5.56 308.91,5.62 310.71,5.61 312.50,5.60 313.98,5.57 315.45,5.54 316.78,5.53 318.10,5.52 319.46,5.54 320.83,5.56 322.38,5.60 323.94,5.63 325.67,5.67 327.40,5.71 329.50,5.84 331.61,5.98 334.08,6.10 336.56,6.22 339.03,6.32 341.49,6.43 343.48,6.48 345.47,6.53 347.00,6.48 348.53,6.43 350.05,6.37 351.57,6.32 353.18,6.29 354.79,6.26 356.36,6.23 357.93,6.20 359.32,6.15 360.71,6.10 361.92,6.04 363.12,5.99 364.23,5.95 365.34,5.91 366.41,5.89 367.48,5.87 368.59,5.84 369.70,5.82 370.96,5.80 372.21,5.79 373.66,5.80 375.11,5.81 376.57,5.84 378.04,5.87 379.40,5.90 380.76,5.94 382.13,5.97 383.50,6.01 385.26,6.10 387.02,6.19 389.15,6.12 391.27,6.05 393.34,5.99 395.41,5.93 396.50,5.92 397.59,5.92 398.90,5.95 400.21,5.99 401.80,6.05 403.39,6.12 405.00,6.19 406.60,6.25 408.17,6.33 409.73,6.41 411.42,6.53 413.12,6.64 414.71,6.72 416.31,6.79 417.59,6.81 418.87,6.82 420.43,6.78 421.99,6.74 423.41,6.78 424.84,6.82 426.66,6.87 428.48,6.93 430.58,6.93 432.67,6.94 433.91,6.95 435.14,6.97 436.67,6.94 438.19,6.91 438.66,6.99 439.13,7.07 439.55,7.29 439.97,7.51 440.29,7.85 440.62,8.20 440.81,8.63 441.01,9.06 441.06,9.53 441.11,10.00 441.01,10.46 440.91,10.93 440.66,11.33 440.42,11.74 440.06,12.04 439.70,12.35 439.26,12.52 438.82,12.70 438.34,12.72 437.87,12.75 437.41,12.62 436.96,12.49 436.57,12.23 436.17,11.96 435.89,11.58 435.60,11.21 435.45,10.76 435.30,10.31 435.30,9.83 435.30,9.36 435.45,8.91 435.61,8.46 435.89,8.09 436.18,7.71 436.57,7.44 436.96,7.18 437.42,7.05 437.88,6.93 438.35,6.95 438.82,6.98 439.26,7.16 439.70,7.33 440.06,7.64 440.43,7.95 440.67,8.35 440.91,8.76 441.01,9.22 441.11,9.68 441.06,10.16 441.01,10.63 440.81,11.06 440.61,11.49 440.28,11.83 439.96,12.17 439.54,12.39 439.12,12.62 438.65,12.69 438.19,12.77 438.19,12.77 438.19,12.77 436.66,12.74 435.13,12.70 433.89,12.71 432.64,12.72 430.45,12.68 428.27,12.64 426.29,12.49 424.31,12.33 423.06,12.14 421.80,11.95 420.26,11.80 418.71,11.65 417.43,11.58 416.16,11.51 414.54,11.47 412.92,11.44 411.23,11.42 409.55,11.39 408.03,11.36 406.52,11.33 404.93,11.34 403.35,11.35 401.72,11.39 400.10,11.42 397.75,11.36 395.40,11.30 393.33,11.23 391.26,11.17 390.17,11.13 389.09,11.09 388.03,11.03 386.96,10.98 385.16,11.03 383.35,11.08 381.97,11.03 380.59,10.99 379.28,10.94 377.97,10.89 376.53,10.87 375.10,10.86 373.65,10.87 372.20,10.87 370.92,10.85 369.65,10.83 367.45,10.70 365.26,10.58 364.19,10.50 363.12,10.43 361.92,10.37 360.71,10.31 359.32,10.26 357.93,10.21 356.36,10.17 354.79,10.14 353.17,10.10 351.55,10.06 350.02,10.00 348.49,9.93 346.94,9.84 345.40,9.75 343.42,9.71 341.43,9.67 338.97,9.69 336.50,9.70 334.02,9.74 331.54,9.77 329.44,9.83 327.35,9.89 325.58,9.89 323.80,9.88 322.20,9.82 320.60,9.75 319.25,9.62 317.91,9.49 316.63,9.36 315.34,9.22 313.90,9.11 312.46,8.99 310.67,8.93 308.89,8.88 306.79,8.92 304.68,8.96 302.58,8.99 300.48,9.02 298.61,8.97 296.74,8.91 295.23,8.76 293.71,8.61 292.34,8.40 290.97,8.19 289.34,7.98 287.71,7.78 285.68,7.67 283.64,7.55 281.22,7.48 278.79,7.40 276.08,7.35 273.37,7.30 270.57,7.22 267.78,7.14 265.43,7.05 263.09,6.95 261.21,6.80 259.33,6.66 257.40,6.53 255.47,6.40 253.28,6.29 251.09,6.18 248.71,6.06 246.34,5.95 243.96,5.89 241.59,5.84 239.40,5.82 237.20,5.79 235.40,5.68 233.60,5.57 231.87,5.42 230.14,5.27 228.08,5.17 226.01,5.07 223.52,4.97 221.03,4.87 218.24,4.78 215.45,4.69 213.19,4.63 210.93,4.57 209.07,4.44 207.21,4.31 203.77,4.18 200.32,4.05 197.35,3.95 194.38,3.86 191.27,3.75 188.15,3.65 185.07,3.54 181.99,3.43 178.79,3.29 175.59,3.15 172.55,3.01 169.50,2.87 166.99,2.75 164.47,2.63 162.30,2.52 160.13,2.41 157.96,2.33 155.79,2.24 153.27,2.15 150.75,2.05 147.97,1.95 145.19,1.85 142.63,1.78 140.06,1.72 137.94,1.68 135.82,1.63 133.85,1.55 131.89,1.46 129.93,1.36 127.96,1.27 126.03,1.15 124.09,1.03 122.00,0.93 119.92,0.83 117.84,0.76 115.76,0.70 113.70,0.65 111.65,0.60 109.49,0.59 107.33,0.58 105.07,0.61 102.81,0.63 100.32,0.65 97.83,0.66 95.21,0.66 92.59,0.66 90.27,0.69 87.94,0.71 86.15,0.71 84.37,0.71 82.81,0.70 81.25,0.68 79.68,0.65 78.11,0.62 76.42,0.58 74.74,0.54 72.77,0.55 70.80,0.56 68.64,0.62 66.48,0.69 64.27,0.79 62.05,0.89 60.02,1.00 57.99,1.11 56.12,1.20 54.26,1.28 52.60,1.30 50.95,1.33 49.40,1.32 47.86,1.32 46.18,1.35 44.51,1.38 42.77,1.44 41.03,1.50 39.19,1.63 37.34,1.75 35.60,1.86 33.87,1.96 32.39,2.02 30.92,2.07 29.48,2.13 28.05,2.19 26.67,2.23 25.29,2.28 24.09,2.31 22.89,2.34 20.83,2.45 18.77,2.55 17.60,2.66 16.43,2.76 15.18,2.87 13.93,2.97 12.76,3.01 11.60,3.05 9.56,3.01 7.53,2.98 6.41,2.92 5.29,2.87 4.04,2.79 2.80,2.71 1.32,2.63 -0.16,2.56 -0.46,2.50 -0.76,2.44 -1.05,2.32 -1.33,2.19 -1.57,2.00 -1.81,1.81 -2.00,1.56 -2.19,1.32 -2.32,1.03 -2.45,0.75 -2.50,0.45 -2.56,0.14 -2.54,-0.16 -2.52,-0.46 -2.43,-0.76 -2.33,-1.05 -2.17,-1.32 -2.01,-1.58 -1.79,-1.80 -1.57,-2.02 -1.31,-2.18 -1.04,-2.34 -0.75,-2.43 -0.45,-2.52 -0.14,-2.54 0.16,-2.56 0.16,-2.56 L 0.16,-2.56 Z"></path></g></svg>